<?xml version="1.0" encoding="UTF-8" standalone="no"?>
<!-- Created with Inkscape (http://www.inkscape.org/) -->

<svg
   width="125.82351mm"
   height="116.0975mm"
   viewBox="0 0 125.82351 116.0975"
   version="1.1"
   id="svg1"
   xml:space="preserve"
   xmlns="http://www.w3.org/2000/svg"
   xmlns:svg="http://www.w3.org/2000/svg"><defs
     id="defs1" /><g
     id="layer1"
     transform="translate(-17.414315,-12.858953)"><g
       id="g23"><path
         style="fill:none;stroke:#070707;stroke-linecap:round"
         d="m 53.672419,13.496685 c 6.555724,-0.995054 14.070151,3.583873 15.452815,10.191464 0.347564,1.660961 0.162409,3.927134 0.159147,5.556201 -0.0013,0.668709 -0.108254,1.624844 0.331767,2.163902 0.851765,1.043476 2.563599,0.388865 4.164603,0.52005 3.296084,0.270074 6.526334,2.058216 7.78738,5.253596 1.986264,5.033018 -0.594691,11.742015 -4.384519,15.218547 -1.219717,1.118883 -2.982683,2.279907 -4.460084,2.901857 -0.809652,0.340847 -1.357552,0.331392 -1.678252,1.050873 -0.295767,0.663541 0.542505,2.454808 0.74133,3.318305 0.507552,2.204282 -0.152397,4.47534 -1.324495,6.349992 -1.949719,3.118373 -4.980768,4.569512 -8.587609,3.862021 -1.194767,-0.234352 -2.489666,-1.277958 -3.704167,-0.949885 -3.414992,0.922481 -5.216271,4.557829 -9.260416,4.96583 -7.008151,0.707031 -17.109139,-4.435549 -14.33876,-12.640458 1.413159,-4.18529 5.134544,-3.635469 7.184677,-6.280164 0.674033,-0.869512 -0.121268,-5.236857 0.1818,-6.949002 0.529195,-2.989603 3.293902,-4.141123 3.800515,-6.609666 0.190953,-0.930442 -0.759514,-1.629753 -1.327753,-2.179098 -1.715282,-1.65824 -2.892473,-3.636632 -3.464495,-6.027902 -2.059976,-8.611506 3.644507,-18.337954 12.726516,-19.716463 m 10.847916,25.272713 c -1.127301,1.495273 -2.577241,3.215824 -3.049898,4.233333 -0.525873,1.132069 -0.303745,1.505011 -0.51563,2.910416 -0.524371,3.478042 2.420709,9.070982 -1.19721,10.591432 -1.398788,0.587852 -5.020983,-1.670215 -6.878928,-1.985522 -2.517647,-0.427267 -4.307408,0.959228 -6.614583,1.502315 -1.84476,0.434235 -3.229486,-0.503012 -4.46662,-1.028852 m 4.142811,-13.909763 c 3.223968,1.043452 12.564142,1.969002 15.140475,1.919974 m 6.859903,13.455471 2.84614,-0.226305"
         id="path8" /><path
         style="fill:none;stroke:#070707;stroke-linecap:round"
         d="m 34.093253,77.801711 c 8.821227,-1.545884 17.081858,5.594345 18.166421,14.148934 0.374784,2.956126 -1.252834,8.030727 -0.04832,10.519535 0.705226,1.45716 4.596788,2.38253 5.95679,3.57377 4.758297,4.16782 4.708538,12.91347 -2.379061,14.54866 -2.017085,0.46537 -4.730029,0.36598 -6.614583,-0.44156 -0.823149,-0.35272 -2.223968,-1.25736 -3.037922,-0.83644 -1.175552,0.60791 -1.242586,2.1306 -2.0658,3.32751 -1.717541,2.49721 -4.365201,4.15008 -7.331694,4.60263 -5.724528,0.87329 -13.441215,-1.05116 -16.965294,-5.92603 -2.625351,-3.63167 -2.31304,-9.84291 -0.04995,-13.48815 0.680971,-1.09686 1.001074,-1.44697 1.939597,-1.99964 0.986128,-0.58069 2.285249,-0.55511 3.43398,-1.25349 2.535359,-1.54141 4.356745,-4.49425 5.217021,-7.335129 0.907442,-2.996643 0.548488,-6.530649 -1.413102,-8.988687 -1.460784,-1.830484 -3.664355,-1.542436 -3.408354,-3.714178 0.287538,-2.439281 5.375344,-6.17258 8.600268,-6.737735 m -8.565851,6.714355 c 0,2.156119 -0.316964,7.167444 -0.848182,11.138745 -0.629363,4.705009 -2.316792,7.939159 -2.514843,9.864459"
         id="path10" /><path
         style="fill:none;stroke:#070707;stroke-linecap:round"
         d="m 86.745334,110.73606 c -3.017879,-0.61966 -8.894983,0.81246 -12.188488,-4.7625 -1.244521,-2.10662 -1.838175,-4.7024 -1.397851,-7.143749 0.250308,-1.387803 1.32743,-2.814072 1.211005,-4.233333 -0.138158,-1.684151 -1.39004,-3.362068 -1.810169,-5.027083 -1.046407,-4.147017 -0.89724,-8.078108 0.321968,-12.170833 1.715525,-5.758805 6.078142,-11.46687 11.746868,-13.698993 1.516381,-0.597089 3.994524,-1.259823 5.556202,-1.361876 0.743155,-0.04857 1.792647,0.05963 2.312762,-0.682226 0.496029,-0.707498 0.322243,-1.377992 0.469602,-2.248578 0.388631,-2.296033 1.014158,-5.036248 2.061267,-7.143742 3.963865,-7.977969 12.65356,-10.26784 20.55642,-6.902413 5.60354,2.386265 9.23505,8.305743 9.75484,14.310746 0.17053,1.970002 0.41571,4.129254 0.21465,6.085408 -0.0827,0.804481 -0.31482,1.552263 0.0395,2.259302 0.60245,1.202268 4.15661,1.464356 5.86603,2.070489 4.28452,1.519214 8.03368,4.699091 9.92735,8.899383 2.90872,6.451778 0.86116,13.664169 -3.66702,18.78343 -1.4536,1.643342 -5.10327,3.328358 -5.67676,5.334658 -0.51237,1.79245 1.86356,4.5642 2.04946,6.57358 0.62479,6.7535 -3.6773,13.00557 -9.77677,15.90613 -2.68251,1.27566 -6.2142,1.1314 -8.73125,-0.43939 -1.11168,-0.69376 -2.36658,-2.50178 -3.70417,-2.50139 -1.71018,4.9e-4 -4.46572,3.52673 -6.08542,4.39572 -4.49927,2.41391 -9.78614,1.50627 -14.022913,-0.93365 -6.783912,-3.90682 -5.705853,-11.61874 -5.027083,-15.36909 m 5.37686,-48.712943 3.354359,0.55878 m 26.722917,5.820833 3.66252,0.184572 m -21.65419,8.01751 c -5e-5,1.960685 0.18006,3.485366 -0.25068,5.027084 -0.42149,1.508644 -0.8523,1.746025 -1.50245,3.439583 -1.26727,3.301106 -4.55953,8.155848 -6.661889,10.583292 -0.84034,0.970282 -0.855027,1.615922 -1.785429,2.40863 -0.771602,0.657421 -2.264735,0.910394 -2.764132,1.030994 m 12.82911,-16.972791 c 1.40175,1.438075 3.48331,5.645301 7.01464,7.73139 1.18325,0.698996 2.99927,1.457848 4.23173,1.828029 0.65463,0.196613 1.54368,0.342623 1.70902,1.136502 0.27553,1.322925 -0.74451,2.335654 -1.55894,3.631036 -1.94875,3.099536 -4.88901,9.954319 -7.57543,10.873459 -1.11801,0.38252 -1.67158,-0.88665 -2.04027,-1.61416 -0.71073,-1.40245 -1.91224,-3.46954 -3.25408,-4.56377 -3.846342,-3.136596 -6.793982,-2.207442 -8.595398,-3.049864 m -5.377497,11.129084 -1.880801,1.51275"
         id="path9" /></g><path
       style="fill:#ffffd0;fill-opacity:1;stroke:#000707;stroke-width:0.34213;stroke-linecap:round;stroke-opacity:1"
       d="M 122.31143,479.46189 C 102.5833,477.479 86.616623,470.09737 77.553205,458.76949 70.22391,449.60901 67.855321,435.12083 71.36216,420.90012 c 2.231608,-9.04947 6.64513,-16.43305 11.350449,-18.98866 0.892321,-0.48464 3.526314,-1.43903 5.853318,-2.12085 4.795755,-1.40518 7.184401,-2.51669 10.138538,-4.71778 8.624785,-6.42624 15.922855,-18.28807 18.680655,-30.3624 0.87577,-3.83431 1.19545,-10.62251 0.68124,-14.46552 -0.87312,-6.52536 -3.49957,-13.11486 -7.00127,-17.56552 -2.03943,-2.59212 -3.68853,-3.92479 -8.15664,-6.59158 -3.819849,-2.27987 -4.375049,-2.97829 -4.375049,-5.50362 0,-3.15025 1.442475,-5.59267 5.970169,-10.10877 4.41069,-4.3994 8.72157,-7.54713 14.21549,-10.37991 5.37067,-2.76922 8.20364,-3.71219 13.10293,-4.36138 17.25799,-2.28677 35.88018,5.20803 48.54703,19.53854 7.51966,8.50729 12.88881,19.49786 14.70819,30.10743 0.83544,4.87179 0.73856,8.82084 -0.45744,18.64607 -0.53942,4.43134 -0.77538,8.27878 -0.78684,12.82987 -0.0146,5.7875 0.0668,6.7649 0.74215,8.91134 1.39365,4.42964 3.36619,6.13645 11.72923,10.14909 10.5741,5.07354 10.6661,5.12628 13.29981,7.62421 7.1413,6.77311 11.12561,16.85218 10.53971,26.66218 -0.41237,6.90457 -2.73377,12.29687 -7.23495,16.80582 -2.23827,2.24213 -3.35151,3.05004 -5.99855,4.35331 -4.53497,2.23279 -7.91766,2.99981 -14.24325,3.22964 -7.51773,0.27314 -12.62296,-0.65666 -17.74742,-3.23228 -3.24436,-1.63065 -6.91335,-2.82738 -8.65764,-2.82389 -2.14285,0.004 -4.8093,1.53372 -6.20135,3.55699 -0.5735,0.83356 -1.86337,3.35175 -2.86638,5.59599 -1.00302,2.24423 -2.52759,4.98964 -3.38795,6.1009 -6.29308,8.12826 -14.72483,13.22892 -24.88583,15.0543 -2.81002,0.5048 -13.70343,0.9103 -16.60908,0.61825 z"
       id="path23"
       transform="scale(0.26458333)" /><path
       style="fill:#ffffd0;fill-opacity:1;stroke:#000707;stroke-width:0.34213;stroke-linecap:round;stroke-opacity:1"
       d="m 173.11771,277.11568 c -18.08616,-2.49816 -33.68253,-11.90881 -39.3918,-23.76852 -2.13201,-4.42875 -2.81199,-7.74658 -2.59224,-12.64821 0.37272,-8.3136 3.22667,-14.50068 8.52652,-18.48465 1.15172,-0.86576 4.19,-2.63762 6.75172,-3.93746 5.41834,-2.74931 8.30392,-4.55252 10.44848,-6.52931 l 1.53644,-1.41624 3.18351,1.39618 c 6.74115,2.95644 10.60282,3.13169 17.52464,0.79532 2.25806,-0.76218 5.87608,-2.00769 8.04006,-2.7678 8.37118,-2.94045 10.78966,-2.73867 22.29265,1.85992 8.6541,3.45968 11.3361,4.25792 14.31524,4.26063 4.89801,0.004 9.40575,-4.3138 10.6271,-10.1804 0.58862,-2.82733 0.18806,-10.50342 -0.87873,-16.83946 -1.14856,-6.82172 -1.38936,-12.86411 -0.74737,-18.75383 0.63796,-5.85284 1.42769,-7.50068 7.2448,-15.11702 5.86766,-7.68253 6.09603,-8.03067 5.82595,-8.88161 -0.30922,-0.97426 -1.69565,-1.83097 -2.53301,-1.5652 -0.72071,0.22874 -8.74351,10.48436 -10.90495,13.93989 l -1.278,2.04316 -5.30301,-0.20709 c -13.50902,-0.52755 -37.14629,-3.46774 -47.30704,-5.88442 -3.42062,-0.81357 -3.72561,-0.95417 -4.24387,-1.95637 -0.30711,-0.59389 -2.27031,-2.85053 -4.36265,-5.01476 -4.53309,-4.68882 -6.35919,-7.0173 -8.6848,-11.07411 -4.30892,-7.51652 -6.15115,-16.09558 -5.77226,-26.88079 0.43422,-12.360049 4.2699,-23.439744 11.77542,-34.014373 2.69706,-3.799928 9.49662,-10.532335 13.43406,-13.301396 5.76331,-4.053129 12.8706,-7.166427 19.84353,-8.692316 4.09246,-0.895554 14.65059,-0.904708 18.81714,-0.01631 14.84944,3.166206 27.93164,12.206939 35.17058,24.30538 1.82608,3.051926 3.34326,6.73164 4.45374,10.801885 0.88359,3.238656 0.89402,3.415838 0.9276,15.76321 0.0301,11.06378 0.10183,12.64379 0.62909,13.85626 0.82154,1.88915 2.04324,3.06864 4.09082,3.94949 1.61412,0.69437 2.33991,0.75342 9.96707,0.81093 7.90933,0.0596 8.34348,0.0982 11.27128,0.99998 11.89251,3.66316 19.21799,10.89866 21.91207,21.64292 3.58211,14.28574 -2.05798,33.69178 -13.69044,47.10518 -5.31999,6.13447 -13.64513,11.87247 -22.00762,15.16847 -1.57955,0.62257 -3.21442,1.45371 -3.63305,1.84699 -0.65636,0.61662 -1.5431,0.78093 -6.44173,1.19367 -3.12433,0.26325 -5.99274,0.64568 -6.37425,0.84986 -1.00347,0.53704 -0.9559,2.55484 0.0761,3.22955 0.633,0.41382 1.34738,0.44727 4.02003,0.18822 1.78762,-0.17327 3.96877,-0.31921 4.847,-0.3243 l 1.59676,-0.009 0.34855,1.62512 c 0.19171,0.89382 0.98138,3.61797 1.75483,6.05368 2.16941,6.83176 2.19925,11.6727 0.11052,17.92518 -2.95861,8.85638 -8.97139,16.06088 -16.35559,19.59721 -7.33314,3.51187 -14.42513,3.58772 -22.74596,0.24325 -5.50557,-2.2129 -7.89589,-2.46014 -11.57232,-1.19694 -3.48957,1.199 -6.97027,3.27208 -12.00033,7.14735 -8.53479,6.57537 -12.69266,9.06043 -17.32988,10.35762 -2.40807,0.67362 -11.74862,0.9841 -15.21244,0.50566 z"
       id="path24"
       transform="scale(0.26458333)" /><path
       style="fill:#ffffd0;fill-opacity:1;stroke:#000707;stroke-width:0.34213;stroke-linecap:round;stroke-opacity:1"
       d="m 371.55303,483.08477 c -5.52967,-0.76081 -12.56828,-2.83168 -17.93124,-5.27565 -14.86623,-6.77477 -22.76256,-17.00545 -25.03541,-32.43652 -0.88694,-6.02167 -0.34381,-19.05325 1.04565,-25.08911 0.0896,-0.38901 1.51216,-1.77464 3.16134,-3.07916 1.64918,-1.30453 3.26987,-2.6413 3.60153,-2.9706 1.25269,-1.24378 0.32516,-3.33788 -1.4767,-3.33397 -0.52184,10e-4 -2.09447,1.01832 -4.24969,2.7487 -2.97039,2.38487 -3.55657,2.72302 -4.44769,2.56573 -0.56451,-0.0996 -4.10555,-0.33804 -7.86898,-0.52977 -8.40251,-0.42807 -11.71371,-0.82696 -15.90904,-1.9165 -9.89193,-2.56897 -17.27109,-9.2591 -21.40986,-19.41071 -1.99059,-4.88254 -2.59761,-7.74033 -2.79219,-13.14527 -0.21604,-6.00144 0.0733,-7.59896 2.48713,-13.73014 3.60403,-9.15445 3.47565,-10.33266 -2.6877,-24.66768 -5.03493,-11.71049 -5.69272,-30.14042 -1.63714,-45.86953 5.56218,-21.57226 19.42457,-40.75712 36.51638,-50.53683 8.00156,-4.57838 18.77588,-7.8426 28.93134,-8.76512 2.95132,-0.2681 5.61848,-0.62873 5.92703,-0.8014 0.36851,-0.20623 2.5187,0.0169 6.26638,0.65014 7.01961,1.18618 7.72866,1.20409 8.42302,0.21275 0.68598,-0.97938 0.67087,-1.38796 -0.0859,-2.32252 -0.51198,-0.63227 -1.43237,-0.90127 -5.34461,-1.56206 -2.59937,-0.43904 -4.79686,-0.869 -4.88331,-0.95545 -0.0865,-0.0865 0.0125,-0.47423 0.21987,-0.86174 0.20739,-0.3875 0.52586,-2.26615 0.70771,-4.17477 0.67981,-7.13481 3.41933,-18.42589 6.1294,-25.2627 6.00255,-15.14283 18.1823,-26.93937 32.90855,-31.87312 6.41175,-2.14813 8.92812,-2.50037 17.92373,-2.50897 7.63205,-0.007 8.51323,0.0569 12.49505,0.91009 7.92835,1.69883 15.5737,4.71328 21.11574,8.32563 9.35895,6.10023 16.41204,14.31408 21.63472,25.19525 3.84388,8.00849 5.71252,15.29221 6.65358,25.93471 0.91903,10.39341 1.02171,15.40457 0.42398,20.69313 -0.35236,3.11763 -0.44088,5.30744 -0.25356,6.27252 l 0.28779,1.4827 -5.61212,-0.24579 c -5.11814,-0.22416 -5.67168,-0.1919 -6.28871,0.3665 -0.79137,0.71618 -0.87225,1.81852 -0.20079,2.73679 0.42585,0.58238 1.27871,0.69392 8.12559,1.06266 7.28359,0.39225 7.82177,0.46936 11.24216,1.61074 1.9758,0.65931 6.13268,1.76826 9.2375,2.46431 8.64978,1.93915 14.82144,4.50449 21.36982,8.88267 13.48098,9.01325 22.06725,21.0164 25.69761,35.92388 4.34091,17.82525 -1.29169,39.0155 -14.82354,55.76717 -2.8528,3.53161 -3.53664,4.13972 -10.6897,9.50581 -7.21261,5.41076 -11.11531,9.16765 -12.51601,12.04837 -0.85204,1.75235 -0.99695,2.45335 -0.99013,4.78982 0.01,3.35711 0.69516,5.50031 4.10279,12.82987 3.75467,8.07605 3.76019,8.09798 3.74626,14.88265 -0.009,4.61808 -0.16989,6.60752 -0.77867,9.65756 -2.27709,11.40841 -8.53955,22.70958 -17.22946,31.0921 -7.08932,6.83854 -16.3095,12.50068 -23.45506,14.40382 -2.9052,0.77377 -4.01714,0.88963 -8.47583,0.88317 -4.40211,-0.006 -5.60439,-0.13224 -8.45402,-0.88507 -4.83468,-1.27725 -8.6829,-3.40646 -12.58696,-6.96434 -5.54287,-5.05136 -8.37509,-6.52762 -11.84204,-6.17251 -3.20899,0.32869 -7.36241,3.06024 -14.15983,9.31239 -7.04879,6.48334 -9.13075,7.8844 -14.71159,9.90012 -4.63314,1.67344 -7.96755,2.25136 -13.85626,2.40158 -3.01074,0.0768 -6.4748,0.002 -7.69792,-0.16633 z m 38.3369,-76.17667 c 2.74971,-1.34389 7.76857,-6.56553 11.12743,-11.57704 2.66108,-3.97038 5.42489,-8.74002 12.78721,-22.06738 1.92307,-3.48117 4.61905,-8.02294 5.99106,-10.09283 3.63879,-5.48966 4.36641,-7.07918 4.55474,-9.95008 0.19242,-2.93327 -0.59038,-5.05043 -2.36346,-6.39218 -0.63392,-0.47971 -3.52854,-1.65912 -6.43249,-2.6209 -6.06438,-2.00851 -13.81642,-5.65794 -17.30066,-8.14464 -5.45506,-3.89327 -9.77819,-8.64425 -16.93616,-18.6123 -2.3466,-3.26783 -4.75133,-6.48036 -5.34385,-7.13896 l -1.07729,-1.19746 0.44278,-2.14352 c 0.48763,-2.36066 0.7219,-7.99323 0.59033,-14.19318 -0.0742,-3.49585 -0.17454,-4.10925 -0.76958,-4.70429 -0.91318,-0.91318 -1.56367,-0.86234 -2.63169,0.20568 l -0.88993,0.88994 0.22876,5.18287 c 0.4098,9.28457 -0.46281,13.95236 -3.8664,20.68223 -0.92287,1.82478 -2.31456,4.85736 -3.09265,6.73908 -4.12515,9.97622 -13.16955,24.46971 -22.64125,36.28221 -1.80334,2.24901 -4.12472,5.39776 -5.15863,6.99721 -1.03392,1.59946 -2.24865,3.24562 -2.69942,3.65813 -1.19852,1.0968 -4.26543,2.41122 -7.53262,3.22833 -1.57552,0.39403 -3.13401,0.95411 -3.46331,1.24463 -1.03695,0.91482 -0.68208,2.67224 0.64119,3.17534 1.02485,0.38965 6.57282,-0.97636 9.51017,-2.34158 1.95738,-0.90975 2.16922,-0.9404 3.5994,-0.52079 0.8358,0.24522 3.37611,0.68663 5.64515,0.98092 8.2788,1.07373 12.88387,2.4649 17.87561,5.40013 7.07397,4.15961 11.16243,8.78258 16.54113,18.70362 3.25344,6.00099 4.08834,7.19695 5.76769,8.26196 2.06126,1.30721 4.31148,1.32837 6.89674,0.0648 z"
       id="path25"
       transform="scale(0.26458333)" /><path
       style="fill:#8b3b04;fill-opacity:1;stroke:#000707;stroke-width:0.34213;stroke-linecap:round;stroke-opacity:1"
       d="m 404.44923,402.73964 c -0.49888,-0.53548 -1.6605,-2.42147 -2.58138,-4.19109 -3.63837,-6.99176 -7.36285,-12.51813 -10.67893,-15.84535 -4.97589,-4.99262 -12.46657,-9.1652 -19.41683,-10.81588 -2.10845,-0.50076 -11.74377,-2.04494 -12.75992,-2.04494 -0.0969,0 0.87618,-1.52978 2.97699,-4.68016 0.64993,-0.97463 2.40547,-3.27254 3.9012,-5.10648 8.84979,-10.85085 18.18878,-25.87993 22.73904,-36.59356 1.19375,-2.81069 2.75351,-6.21496 3.46615,-7.56504 l 1.29569,-2.45469 3.9707,5.55582 c 7.38833,10.33776 12.3988,15.93661 17.85533,19.95211 4.66411,3.43235 12.93211,7.31882 20.51552,9.64356 1.89844,0.58198 3.70745,1.34074 4.02002,1.68613 0.72977,0.80638 0.74491,3.31813 0.0303,5.02838 -0.29589,0.70819 -1.57591,2.84392 -2.84448,4.74607 -3.13102,4.69481 -4.01732,6.20825 -9.53878,16.28833 -7.5895,13.85555 -10.70544,18.71505 -14.78101,23.0519 -3.9877,4.24333 -6.40899,5.23468 -8.16963,3.34489 z"
       id="path26"
       transform="scale(0.26458333)" /><path
       style="fill:#8b3b04;fill-opacity:1;stroke:#000707;stroke-width:0.34213;stroke-linecap:round;stroke-opacity:1"
       d="m 86.736436,394.56126 c 0.265556,-0.89381 1.419781,-4.55032 2.564945,-8.12558 5.341521,-16.67649 6.727839,-25.29459 8.814884,-54.79805 l 0.246071,-3.47857 2.919134,1.76792 c 4.15327,2.51536 5.31366,3.48874 7.03548,5.90166 8.41071,11.78655 7.80532,28.85986 -1.56395,44.10657 -4.77141,7.76457 -10.9329,13.28191 -17.004601,15.22685 -1.758749,0.56338 -3.264566,1.02432 -3.346259,1.02432 -0.08169,0 0.06874,-0.7313 0.334296,-1.62512 z"
       id="path27"
       transform="scale(0.26458333)" /><path
       style="fill:#8b3b04;fill-opacity:1;stroke:#000707;stroke-width:0.34213;stroke-linecap:round;stroke-opacity:1"
       d="m 220.16057,211.26948 c -1.8332,-0.49711 -4.11741,-1.36651 -11.55671,-4.39865 -6.15368,-2.50815 -8.255,-3.03062 -12.22132,-3.03872 -4.05247,-0.008 -7.46263,0.78208 -14.06175,3.25902 -9.89583,3.71435 -12.66753,3.83377 -19.2089,0.82762 l -2.43908,-1.1209 0.0689,-5.29319 c 0.0379,-2.91125 -0.0689,-7.72984 -0.23732,-10.70797 -0.61656,-10.90226 0.24436,-13.28997 8.3481,-23.15306 3.01051,-3.66409 5.63374,-8.01705 5.63374,-9.34856 0,-0.70524 -0.37582,-0.73221 3.82157,0.27416 9.15368,2.19469 31.71376,5.01906 46.74236,5.85183 l 4.20533,0.23302 -0.1753,1.40925 c -1.19184,9.58115 -1.09691,14.27768 0.49181,24.33194 0.90556,5.73091 1.05923,7.5374 0.94585,11.11922 -0.11464,3.62128 -0.25605,4.51255 -0.92279,5.81621 -2.03788,3.9846 -4.88386,5.17276 -9.43449,3.93878 z"
       id="path28"
       transform="scale(0.26458333)" /></g></svg>
